<mxfile host="app.diagrams.net" modified="2022-06-11T12:47:43.648Z" agent="5.0 (Windows NT 10.0; Win64; x64) AppleWebKit/537.36 (KHTML, like Gecko) Chrome/102.0.5005.63 Safari/537.36" etag="GqpHsV9UI_KYOR15cyeI" version="18.1.3" type="github">
  <diagram id="oLCNLTjYmlNbL7CgLi69" name="Page-1">
    <mxGraphModel dx="974" dy="925" grid="1" gridSize="10" guides="1" tooltips="1" connect="1" arrows="1" fold="1" page="1" pageScale="1" pageWidth="827" pageHeight="1169" math="0" shadow="0">
      <root>
        <mxCell id="0" />
        <mxCell id="1" parent="0" />
        <mxCell id="Rf7iLFimngxrEuI54_lw-1" value="d1" style="ellipse;whiteSpace=wrap;html=1;aspect=fixed;" vertex="1" parent="1">
          <mxGeometry x="50" y="340" width="80" height="80" as="geometry" />
        </mxCell>
        <mxCell id="Rf7iLFimngxrEuI54_lw-2" value="d2" style="ellipse;whiteSpace=wrap;html=1;aspect=fixed;" vertex="1" parent="1">
          <mxGeometry x="200" y="160" width="80" height="80" as="geometry" />
        </mxCell>
        <mxCell id="Rf7iLFimngxrEuI54_lw-3" value="d11" style="ellipse;whiteSpace=wrap;html=1;aspect=fixed;" vertex="1" parent="1">
          <mxGeometry x="630" y="340" width="80" height="80" as="geometry" />
        </mxCell>
        <mxCell id="Rf7iLFimngxrEuI54_lw-4" value="d13" style="ellipse;whiteSpace=wrap;html=1;aspect=fixed;" vertex="1" parent="1">
          <mxGeometry x="200" y="280" width="80" height="80" as="geometry" />
        </mxCell>
        <mxCell id="Rf7iLFimngxrEuI54_lw-5" value="d8" style="ellipse;whiteSpace=wrap;html=1;aspect=fixed;" vertex="1" parent="1">
          <mxGeometry x="500" y="480" width="80" height="80" as="geometry" />
        </mxCell>
        <mxCell id="Rf7iLFimngxrEuI54_lw-6" value="d7" style="ellipse;whiteSpace=wrap;html=1;aspect=fixed;" vertex="1" parent="1">
          <mxGeometry x="490" y="340" width="80" height="80" as="geometry" />
        </mxCell>
        <mxCell id="Rf7iLFimngxrEuI54_lw-7" value="d9" style="ellipse;whiteSpace=wrap;html=1;aspect=fixed;" vertex="1" parent="1">
          <mxGeometry x="200" y="400" width="80" height="80" as="geometry" />
        </mxCell>
        <mxCell id="Rf7iLFimngxrEuI54_lw-9" value="d4" style="ellipse;whiteSpace=wrap;html=1;aspect=fixed;" vertex="1" parent="1">
          <mxGeometry x="200" y="520" width="80" height="80" as="geometry" />
        </mxCell>
        <mxCell id="Rf7iLFimngxrEuI54_lw-10" value="d3" style="ellipse;whiteSpace=wrap;html=1;aspect=fixed;" vertex="1" parent="1">
          <mxGeometry x="360" y="400" width="80" height="80" as="geometry" />
        </mxCell>
        <mxCell id="Rf7iLFimngxrEuI54_lw-11" value="d10" style="ellipse;whiteSpace=wrap;html=1;aspect=fixed;" vertex="1" parent="1">
          <mxGeometry x="630" y="200" width="80" height="80" as="geometry" />
        </mxCell>
        <mxCell id="Rf7iLFimngxrEuI54_lw-12" value="d6" style="ellipse;whiteSpace=wrap;html=1;aspect=fixed;" vertex="1" parent="1">
          <mxGeometry x="360" y="280" width="80" height="80" as="geometry" />
        </mxCell>
        <mxCell id="Rf7iLFimngxrEuI54_lw-13" value="d12" style="ellipse;whiteSpace=wrap;html=1;aspect=fixed;" vertex="1" parent="1">
          <mxGeometry x="630" y="480" width="80" height="80" as="geometry" />
        </mxCell>
        <mxCell id="Rf7iLFimngxrEuI54_lw-14" value="d5" style="ellipse;whiteSpace=wrap;html=1;aspect=fixed;" vertex="1" parent="1">
          <mxGeometry x="490" y="200" width="80" height="80" as="geometry" />
        </mxCell>
        <mxCell id="Rf7iLFimngxrEuI54_lw-45" value="400" style="endArrow=classic;startArrow=classic;html=1;rounded=0;entryX=1;entryY=0.5;entryDx=0;entryDy=0;exitX=0;exitY=0.5;exitDx=0;exitDy=0;" edge="1" parent="1" source="Rf7iLFimngxrEuI54_lw-11" target="Rf7iLFimngxrEuI54_lw-14">
          <mxGeometry width="50" height="50" relative="1" as="geometry">
            <mxPoint x="380" y="430" as="sourcePoint" />
            <mxPoint x="430" y="380" as="targetPoint" />
          </mxGeometry>
        </mxCell>
        <mxCell id="Rf7iLFimngxrEuI54_lw-46" value="300" style="endArrow=classic;startArrow=classic;html=1;rounded=0;entryX=0;entryY=0.625;entryDx=0;entryDy=0;entryPerimeter=0;" edge="1" parent="1" source="Rf7iLFimngxrEuI54_lw-12" target="Rf7iLFimngxrEuI54_lw-14">
          <mxGeometry width="50" height="50" relative="1" as="geometry">
            <mxPoint x="380" y="430" as="sourcePoint" />
            <mxPoint x="430" y="380" as="targetPoint" />
          </mxGeometry>
        </mxCell>
        <mxCell id="Rf7iLFimngxrEuI54_lw-47" value="180" style="endArrow=classic;startArrow=classic;html=1;rounded=0;exitX=1;exitY=0;exitDx=0;exitDy=0;entryX=0;entryY=1;entryDx=0;entryDy=0;" edge="1" parent="1" source="Rf7iLFimngxrEuI54_lw-9" target="Rf7iLFimngxrEuI54_lw-10">
          <mxGeometry width="50" height="50" relative="1" as="geometry">
            <mxPoint x="380" y="430" as="sourcePoint" />
            <mxPoint x="430" y="380" as="targetPoint" />
          </mxGeometry>
        </mxCell>
        <mxCell id="Rf7iLFimngxrEuI54_lw-48" value="190" style="endArrow=classic;startArrow=classic;html=1;rounded=0;entryX=0;entryY=1;entryDx=0;entryDy=0;" edge="1" parent="1" target="Rf7iLFimngxrEuI54_lw-14">
          <mxGeometry width="50" height="50" relative="1" as="geometry">
            <mxPoint x="430" y="410" as="sourcePoint" />
            <mxPoint x="430" y="380" as="targetPoint" />
          </mxGeometry>
        </mxCell>
        <mxCell id="Rf7iLFimngxrEuI54_lw-49" value="250" style="endArrow=classic;startArrow=classic;html=1;rounded=0;exitX=0.5;exitY=0;exitDx=0;exitDy=0;entryX=0.5;entryY=1;entryDx=0;entryDy=0;" edge="1" parent="1" source="Rf7iLFimngxrEuI54_lw-10" target="Rf7iLFimngxrEuI54_lw-12">
          <mxGeometry width="50" height="50" relative="1" as="geometry">
            <mxPoint x="380" y="430" as="sourcePoint" />
            <mxPoint x="430" y="380" as="targetPoint" />
          </mxGeometry>
        </mxCell>
        <mxCell id="Rf7iLFimngxrEuI54_lw-50" value="360" style="endArrow=classic;startArrow=classic;html=1;rounded=0;exitX=0.963;exitY=0.825;exitDx=0;exitDy=0;exitPerimeter=0;entryX=0;entryY=0;entryDx=0;entryDy=0;" edge="1" parent="1" source="Rf7iLFimngxrEuI54_lw-2" target="Rf7iLFimngxrEuI54_lw-12">
          <mxGeometry width="50" height="50" relative="1" as="geometry">
            <mxPoint x="380" y="430" as="sourcePoint" />
            <mxPoint x="430" y="380" as="targetPoint" />
          </mxGeometry>
        </mxCell>
        <mxCell id="Rf7iLFimngxrEuI54_lw-51" value="200" style="endArrow=classic;startArrow=classic;html=1;rounded=0;exitX=0.5;exitY=0;exitDx=0;exitDy=0;entryX=0.5;entryY=1;entryDx=0;entryDy=0;" edge="1" parent="1" source="Rf7iLFimngxrEuI54_lw-4" target="Rf7iLFimngxrEuI54_lw-2">
          <mxGeometry width="50" height="50" relative="1" as="geometry">
            <mxPoint x="380" y="430" as="sourcePoint" />
            <mxPoint x="430" y="380" as="targetPoint" />
          </mxGeometry>
        </mxCell>
        <mxCell id="Rf7iLFimngxrEuI54_lw-52" value="180" style="endArrow=classic;startArrow=classic;html=1;rounded=0;exitX=0.5;exitY=0;exitDx=0;exitDy=0;entryX=0.5;entryY=1;entryDx=0;entryDy=0;" edge="1" parent="1" source="Rf7iLFimngxrEuI54_lw-7" target="Rf7iLFimngxrEuI54_lw-4">
          <mxGeometry width="50" height="50" relative="1" as="geometry">
            <mxPoint x="380" y="430" as="sourcePoint" />
            <mxPoint x="430" y="380" as="targetPoint" />
          </mxGeometry>
        </mxCell>
        <mxCell id="Rf7iLFimngxrEuI54_lw-53" value="290" style="endArrow=classic;startArrow=classic;html=1;rounded=0;exitX=1;exitY=1;exitDx=0;exitDy=0;entryX=0;entryY=0.5;entryDx=0;entryDy=0;" edge="1" parent="1" source="Rf7iLFimngxrEuI54_lw-1" target="Rf7iLFimngxrEuI54_lw-7">
          <mxGeometry width="50" height="50" relative="1" as="geometry">
            <mxPoint x="380" y="430" as="sourcePoint" />
            <mxPoint x="430" y="380" as="targetPoint" />
          </mxGeometry>
        </mxCell>
        <mxCell id="Rf7iLFimngxrEuI54_lw-54" value="250" style="endArrow=classic;startArrow=classic;html=1;rounded=0;exitX=1;exitY=0.5;exitDx=0;exitDy=0;entryX=0;entryY=1;entryDx=0;entryDy=0;" edge="1" parent="1" source="Rf7iLFimngxrEuI54_lw-1" target="Rf7iLFimngxrEuI54_lw-4">
          <mxGeometry width="50" height="50" relative="1" as="geometry">
            <mxPoint x="380" y="430" as="sourcePoint" />
            <mxPoint x="430" y="380" as="targetPoint" />
          </mxGeometry>
        </mxCell>
        <mxCell id="Rf7iLFimngxrEuI54_lw-55" value="200" style="endArrow=classic;startArrow=classic;html=1;rounded=0;exitX=1;exitY=0;exitDx=0;exitDy=0;entryX=0;entryY=1;entryDx=0;entryDy=0;" edge="1" parent="1" source="Rf7iLFimngxrEuI54_lw-1" target="Rf7iLFimngxrEuI54_lw-2">
          <mxGeometry width="50" height="50" relative="1" as="geometry">
            <mxPoint x="350" y="430" as="sourcePoint" />
            <mxPoint x="400" y="380" as="targetPoint" />
          </mxGeometry>
        </mxCell>
        <mxCell id="Rf7iLFimngxrEuI54_lw-56" value="350" style="endArrow=classic;startArrow=classic;html=1;rounded=0;entryX=1.013;entryY=0.613;entryDx=0;entryDy=0;entryPerimeter=0;exitX=0;exitY=0;exitDx=0;exitDy=0;" edge="1" parent="1" source="Rf7iLFimngxrEuI54_lw-3" target="Rf7iLFimngxrEuI54_lw-12">
          <mxGeometry width="50" height="50" relative="1" as="geometry">
            <mxPoint x="440" y="420" as="sourcePoint" />
            <mxPoint x="511.71572875253787" y="278.28427124746213" as="targetPoint" />
            <Array as="points">
              <mxPoint x="580" y="329" />
            </Array>
          </mxGeometry>
        </mxCell>
        <mxCell id="Rf7iLFimngxrEuI54_lw-58" value="300" style="endArrow=classic;startArrow=classic;html=1;rounded=0;exitX=1;exitY=0.5;exitDx=0;exitDy=0;entryX=0;entryY=1;entryDx=0;entryDy=0;" edge="1" parent="1" source="Rf7iLFimngxrEuI54_lw-9" target="Rf7iLFimngxrEuI54_lw-6">
          <mxGeometry x="-0.3078" width="50" height="50" relative="1" as="geometry">
            <mxPoint x="440" y="620" as="sourcePoint" />
            <mxPoint x="490" y="570" as="targetPoint" />
            <Array as="points">
              <mxPoint x="430" y="560" />
            </Array>
            <mxPoint as="offset" />
          </mxGeometry>
        </mxCell>
        <mxCell id="Rf7iLFimngxrEuI54_lw-61" value="250" style="endArrow=classic;startArrow=classic;html=1;rounded=0;entryX=0;entryY=1;entryDx=0;entryDy=0;" edge="1" parent="1">
          <mxGeometry width="50" height="50" relative="1" as="geometry">
            <mxPoint x="430" y="420" as="sourcePoint" />
            <mxPoint x="489.99572875253807" y="390.00427124746193" as="targetPoint" />
          </mxGeometry>
        </mxCell>
        <mxCell id="Rf7iLFimngxrEuI54_lw-62" value="150" style="endArrow=classic;startArrow=classic;html=1;rounded=0;exitX=0.5;exitY=1;exitDx=0;exitDy=0;entryX=0.413;entryY=0.988;entryDx=0;entryDy=0;entryPerimeter=0;" edge="1" parent="1" source="Rf7iLFimngxrEuI54_lw-1" target="Rf7iLFimngxrEuI54_lw-6">
          <mxGeometry x="0.1066" width="50" height="50" relative="1" as="geometry">
            <mxPoint x="128.2842712474619" y="418.2842712474619" as="sourcePoint" />
            <mxPoint x="210" y="450" as="targetPoint" />
            <Array as="points">
              <mxPoint x="130" y="610" />
              <mxPoint x="440" y="610" />
            </Array>
            <mxPoint as="offset" />
          </mxGeometry>
        </mxCell>
        <mxCell id="Rf7iLFimngxrEuI54_lw-63" value="200" style="endArrow=classic;startArrow=classic;html=1;rounded=0;entryX=0.5;entryY=1;entryDx=0;entryDy=0;exitX=0.5;exitY=0;exitDx=0;exitDy=0;" edge="1" parent="1" source="Rf7iLFimngxrEuI54_lw-5" target="Rf7iLFimngxrEuI54_lw-6">
          <mxGeometry width="50" height="50" relative="1" as="geometry">
            <mxPoint x="440" y="430" as="sourcePoint" />
            <mxPoint x="499.99572875253807" y="400.00427124746193" as="targetPoint" />
          </mxGeometry>
        </mxCell>
        <mxCell id="Rf7iLFimngxrEuI54_lw-64" value="220" style="endArrow=classic;startArrow=classic;html=1;rounded=0;exitX=0.375;exitY=1;exitDx=0;exitDy=0;entryX=0;entryY=1;entryDx=0;entryDy=0;exitPerimeter=0;" edge="1" parent="1" source="Rf7iLFimngxrEuI54_lw-1" target="Rf7iLFimngxrEuI54_lw-5">
          <mxGeometry width="50" height="50" relative="1" as="geometry">
            <mxPoint x="99" y="462" as="sourcePoint" />
            <mxPoint x="532.04" y="461.03999999999996" as="targetPoint" />
            <Array as="points">
              <mxPoint x="120" y="620" />
              <mxPoint x="470" y="620" />
            </Array>
          </mxGeometry>
        </mxCell>
        <mxCell id="Rf7iLFimngxrEuI54_lw-65" value="180" style="endArrow=classic;startArrow=classic;html=1;rounded=0;exitX=1;exitY=1;exitDx=0;exitDy=0;entryX=0;entryY=0.5;entryDx=0;entryDy=0;" edge="1" parent="1" source="Rf7iLFimngxrEuI54_lw-7" target="Rf7iLFimngxrEuI54_lw-5">
          <mxGeometry width="50" height="50" relative="1" as="geometry">
            <mxPoint x="278.2842712474619" y="541.7157287525381" as="sourcePoint" />
            <mxPoint x="381.7157287525381" y="478.2842712474619" as="targetPoint" />
            <Array as="points">
              <mxPoint x="370" y="520" />
            </Array>
          </mxGeometry>
        </mxCell>
        <mxCell id="Rf7iLFimngxrEuI54_lw-66" value="200" style="endArrow=classic;startArrow=classic;html=1;rounded=0;exitX=1;exitY=1;exitDx=0;exitDy=0;entryX=1;entryY=0.5;entryDx=0;entryDy=0;" edge="1" parent="1" source="Rf7iLFimngxrEuI54_lw-9" target="Rf7iLFimngxrEuI54_lw-11">
          <mxGeometry width="50" height="50" relative="1" as="geometry">
            <mxPoint x="90" y="430" as="sourcePoint" />
            <mxPoint x="521.7157287525379" y="558.2842712474621" as="targetPoint" />
            <Array as="points">
              <mxPoint x="280" y="630" />
              <mxPoint x="300" y="630" />
              <mxPoint x="740" y="630" />
              <mxPoint x="740" y="240" />
            </Array>
          </mxGeometry>
        </mxCell>
        <mxCell id="Rf7iLFimngxrEuI54_lw-67" value="700" style="endArrow=classic;startArrow=classic;html=1;rounded=0;entryX=0.5;entryY=0;entryDx=0;entryDy=0;exitX=0.5;exitY=1;exitDx=0;exitDy=0;" edge="1" parent="1" source="Rf7iLFimngxrEuI54_lw-11" target="Rf7iLFimngxrEuI54_lw-3">
          <mxGeometry width="50" height="50" relative="1" as="geometry">
            <mxPoint x="640" y="250" as="sourcePoint" />
            <mxPoint x="580" y="250" as="targetPoint" />
          </mxGeometry>
        </mxCell>
        <mxCell id="Rf7iLFimngxrEuI54_lw-68" value="200" style="endArrow=classic;startArrow=classic;html=1;rounded=0;entryX=0.313;entryY=0.038;entryDx=0;entryDy=0;exitX=1;exitY=1;exitDx=0;exitDy=0;entryPerimeter=0;" edge="1" parent="1" source="Rf7iLFimngxrEuI54_lw-14" target="Rf7iLFimngxrEuI54_lw-3">
          <mxGeometry width="50" height="50" relative="1" as="geometry">
            <mxPoint x="680" y="290" as="sourcePoint" />
            <mxPoint x="680" y="350" as="targetPoint" />
          </mxGeometry>
        </mxCell>
        <mxCell id="Rf7iLFimngxrEuI54_lw-69" value="150" style="endArrow=classic;startArrow=classic;html=1;rounded=0;exitX=1;exitY=0.5;exitDx=0;exitDy=0;entryX=1;entryY=0.5;entryDx=0;entryDy=0;" edge="1" parent="1" source="Rf7iLFimngxrEuI54_lw-13" target="Rf7iLFimngxrEuI54_lw-2">
          <mxGeometry width="50" height="50" relative="1" as="geometry">
            <mxPoint x="278.2842712474619" y="598.2842712474619" as="sourcePoint" />
            <mxPoint x="720" y="250" as="targetPoint" />
            <Array as="points">
              <mxPoint x="760" y="520" />
              <mxPoint x="760" y="190" />
              <mxPoint x="290" y="190" />
            </Array>
          </mxGeometry>
        </mxCell>
        <mxCell id="Rf7iLFimngxrEuI54_lw-70" value="100" style="endArrow=classic;startArrow=classic;html=1;rounded=0;exitX=1;exitY=0;exitDx=0;exitDy=0;entryX=0.963;entryY=0.3;entryDx=0;entryDy=0;entryPerimeter=0;" edge="1" parent="1" source="Rf7iLFimngxrEuI54_lw-13" target="Rf7iLFimngxrEuI54_lw-4">
          <mxGeometry x="0.103" width="50" height="50" relative="1" as="geometry">
            <mxPoint x="709" y="507" as="sourcePoint" />
            <mxPoint x="279" y="187" as="targetPoint" />
            <Array as="points">
              <mxPoint x="780" y="492" />
              <mxPoint x="780" y="177" />
              <mxPoint x="350" y="177" />
            </Array>
            <mxPoint as="offset" />
          </mxGeometry>
        </mxCell>
        <mxCell id="Rf7iLFimngxrEuI54_lw-71" value="350" style="endArrow=classic;startArrow=classic;html=1;rounded=0;entryX=1;entryY=1;entryDx=0;entryDy=0;exitX=0.5;exitY=0;exitDx=0;exitDy=0;" edge="1" parent="1">
          <mxGeometry x="-0.2508" width="50" height="50" relative="1" as="geometry">
            <mxPoint x="670" y="480" as="sourcePoint" />
            <mxPoint x="428.2842712474619" y="348.2842712474619" as="targetPoint" />
            <Array as="points">
              <mxPoint x="670" y="440" />
              <mxPoint x="460" y="440" />
            </Array>
            <mxPoint as="offset" />
          </mxGeometry>
        </mxCell>
        <mxCell id="Rf7iLFimngxrEuI54_lw-74" value="190" style="endArrow=classic;startArrow=classic;html=1;rounded=0;exitX=0.788;exitY=0.988;exitDx=0;exitDy=0;exitPerimeter=0;" edge="1" parent="1" source="Rf7iLFimngxrEuI54_lw-2" target="Rf7iLFimngxrEuI54_lw-10">
          <mxGeometry width="50" height="50" relative="1" as="geometry">
            <mxPoint x="287.03999999999996" y="236" as="sourcePoint" />
            <mxPoint x="381.7157287525381" y="301.7157287525381" as="targetPoint" />
          </mxGeometry>
        </mxCell>
        <mxCell id="Rf7iLFimngxrEuI54_lw-75" value="300" style="endArrow=classic;startArrow=classic;html=1;rounded=0;exitX=0.738;exitY=1.013;exitDx=0;exitDy=0;entryX=0;entryY=1;entryDx=0;entryDy=0;exitPerimeter=0;" edge="1" parent="1" source="Rf7iLFimngxrEuI54_lw-1">
          <mxGeometry width="50" height="50" relative="1" as="geometry">
            <mxPoint x="278.2842712474619" y="541.7157287525381" as="sourcePoint" />
            <mxPoint x="381.7157287525381" y="478.2842712474619" as="targetPoint" />
            <Array as="points">
              <mxPoint x="170" y="500" />
            </Array>
          </mxGeometry>
        </mxCell>
      </root>
    </mxGraphModel>
  </diagram>
</mxfile>
